<?xml version="1.0" encoding="UTF-8"?>
<svg width="313px" height="116px" viewBox="0 0 313 116" version="1.1" xmlns="http://www.w3.org/2000/svg" xmlns:xlink="http://www.w3.org/1999/xlink">
    <!-- Generator: Sketch 57.1 (83088) - https://sketch.com -->
    <title>secure_logo_dsec</title>
    <desc>Created with Sketch.</desc>
    <g id="secure_logo_dsec" stroke="none" stroke-width="1" fill="none" fill-rule="evenodd">
        <g id="logo_white" transform="translate(0.705882, 0.000000)" fill="#FFFFFF" fill-rule="nonzero">
            <path d="M90.13605,12.3946829 C86.0241069,13.4358305 81.7996323,13.9668235 77.5579362,13.9756819 C65.4996711,14.0636196 53.9829746,8.9747728 45.9292212,0 C37.8774907,8.97248242 26.3644682,14.0611112 14.3092409,13.9756819 C10.0704682,13.966107 5.84897096,13.4351195 1.73986198,12.3946829 C-4.26094643,53.1250608 8.02891883,79.1198291 19.4715084,93.7768255 C31.2023464,108.826888 44.3918962,115.299376 45.9292212,116.033099 C47.4665462,115.30811 60.656096,108.826888 72.3869339,93.7768255 C83.8033191,79.1198291 96.1281236,53.1250608 90.13605,12.3946829 Z" id="_Контур_"></path>
            <path d="M111.291738,22.9375879 C109.37807,23.3468181 107.441145,23.6385237 105.49183,23.811068 C108.34811,60.1041669 96.2067368,83.3300033 85.4978705,96.4234703 C80.3580096,102.744583 74.3157402,108.274746 67.5653237,112.836162 C68.4388038,113.36025 69.0939139,113.709642 69.3559579,113.823194 C70.8146697,113.185554 82.6590601,107.752507 93.42907,94.7289188 C103.945771,82.0372527 115.563056,59.265626 111.291738,22.9375879 Z" id="_Контур_2"></path>
            <path d="M101.159369,17.8626684 C99.2518141,18.2972169 97.3212691,18.6238347 95.3769307,18.8409662 C98.6961551,57.3527046 85.9782846,82.0459875 74.7016563,95.995465 C69.1775228,102.848343 62.6625313,108.839309 55.3715412,113.770785 C56.2450214,114.294873 56.9176011,114.644266 57.1883799,114.757818 C58.6907657,114.093973 71.2688794,108.250391 82.6503253,94.3183832 C93.7435228,80.7182977 105.937305,56.4442852 101.159369,17.8626684 Z" id="_Контур_3"></path>
            <path d="M90.13605,12.3946829 C86.0241069,13.4358305 81.7996323,13.9668235 77.5579362,13.9756819 C65.4996711,14.0636196 53.9829746,8.9747728 45.9292212,0 L45.9292212,116.033099 C47.4665462,115.30811 60.656096,108.826888 72.3869339,93.7768255 C83.8033191,79.1198291 96.1281236,53.1250608 90.13605,12.3946829 Z" id="_Контур_4"></path>
            <g id="_Группа_" transform="translate(129.795596, 9.608281)">
                <path d="M10.2249031,7.70409464 C8.71712154,7.65554983 7.21396061,7.8956998 5.79635886,8.41161354 L5.79635886,35.323536 C7.21163966,35.8490534 8.71612132,36.0923818 10.2249031,36.0397897 C15.9199934,36.0397897 20.2699244,31.8208807 20.2699244,21.8719422 C20.2699244,11.9230036 15.9025238,7.69535984 10.2249031,7.69535984 M9.92791982,40.8876043 C6.52820413,40.9582273 3.15305798,40.2969012 0.0313900756,38.9484785 L0.0313900756,4.81287545 C3.15296303,3.4632842 6.52773404,2.79905302 9.92791982,2.86501479 C19.6497535,2.86501479 26.0086888,9.34623727 26.0086888,21.880677 C26.0086888,34.4151167 19.6497535,40.8701347 9.92791982,40.8701347" id="_Составной_контур_"></path>
                <path d="M32.1841932,12.8488925 L37.7919356,12.8488925 L37.7919356,40.3023727 L32.1841932,40.3023727 L32.1841932,12.8488925 Z M34.9880644,7.87005587 C33.2081944,7.90428248 31.7339643,6.49635373 31.6863096,4.71679264 C31.6863096,2.88845969 33.1684663,1.40630299 34.9967992,1.40630299 C36.8251322,1.40630299 38.3072889,2.88845969 38.3072889,4.71679264 C38.2549422,6.49987375 36.77137,7.90536325 34.9880644,7.86132106 L34.9880644,7.87005587 Z" id="_Составной_контур_2"></path>
                <path d="M61.0527111,17.3385803 C59.7511439,16.8528428 58.3714907,16.6100712 56.9822938,16.6223267 C52.6148932,16.6223267 49.3568124,19.3650542 49.3568124,26.0035031 C49.3568124,32.0043115 52.2480315,35.0003483 56.5804929,35.0003483 C58.1211349,35.0144165 59.6466452,34.6956087 61.0527111,34.0657246 L61.0527111,17.3385803 Z M54.8597371,51.7624318 C51.48138,51.8015649 48.1366462,51.0884593 45.068025,49.6748143 L46.6839632,45.3074137 C49.0657427,46.4630091 51.6796067,47.0604638 54.3269142,47.054374 C58.8690108,47.054374 61.0527111,44.6785081 61.0527111,40.2150246 L61.0527111,38.1885508 C59.3081241,38.9141118 57.4391935,39.293831 55.5497864,39.3066053 C48.6230891,39.3066053 43.7840092,34.5111995 43.7840092,26.2044035 C43.7840092,16.7184095 49.330608,12.2898653 57.4452383,12.2898653 C60.6009362,12.2478702 63.7268902,12.904082 66.5993099,14.2115215 L66.5993099,40.1800854 C66.5993099,47.6920145 62.1183569,51.7624318 54.8946763,51.7624318 L54.8597371,51.7624318 Z" id="_Составной_контур_3"></path>
                <path d="M73.5434768,12.8488925 L79.1337496,12.8488925 L79.1337496,40.3023727 L73.5434768,40.3023727 L73.5434768,12.8488925 Z M76.347348,7.87005587 C75.4863214,7.89351853 74.6513786,7.57322931 74.026944,6.97993446 C73.4025094,6.38663961 73.0399643,5.56915832 73.0193888,4.70805784 C73.1100042,2.94338085 74.5672438,1.55904999 76.3342458,1.55904999 C78.1012478,1.55904999 79.5584874,2.94338085 79.6491029,4.70805784 C79.6014728,6.49458468 78.1164986,7.9053102 76.3298784,7.86132106 L76.347348,7.87005587 Z" id="_Составной_контур_4"></path>
                <path d="M95.546441,40.6604995 C90.7073612,40.6604995 88.0170424,37.9527111 88.0170424,32.6244824 L88.0170424,17.0153927 L84.2960171,17.0153927 L84.2960171,12.8488925 L88.0170424,12.8488925 L88.0170424,6.48122248 L93.4675583,4.81287545 L93.4675583,12.8488925 L99.0054223,12.8488925 L99.0054223,17.0241275 L93.4675583,17.0241275 L93.4675583,32.3187644 C93.4675583,34.8256523 95.0834965,35.8126849 97.1361748,35.8126849 C97.7763134,35.8219333 98.4118441,35.7031425 99.0054223,35.4632928 L99.0054223,40.0927374 C97.8896962,40.5148212 96.7042598,40.7222725 95.5115018,40.7041735" id="_Контур_5"></path>
                <path d="M119.706901,26.5013868 C114.090424,26.7896352 108.500151,27.2438449 108.500151,32.1353336 C108.500151,35.0527571 110.73626,36.8433914 114.946434,36.8433914 C116.562619,36.8798591 118.173002,36.637563 119.706901,36.1271377 L119.706901,26.5013868 Z M115.12113,40.8613999 C107.259809,40.8613999 103.250536,37.6382583 103.250536,32.2663556 C103.250536,24.6059349 111.382636,23.2345711 119.698166,22.7803615 L119.698166,21.0334012 C119.698166,17.5394808 117.400914,16.3515478 113.889523,16.3515478 C111.273553,16.4049483 108.693935,16.9748982 106.298981,18.0286296 L104.883943,14.1940519 C107.919312,12.9457329 111.166581,12.2933137 114.448551,12.2723957 C121.017121,12.2723957 124.982721,14.8229576 124.982721,21.5749589 L124.982721,38.9222741 C122.999921,39.9966546 118.981913,40.8613999 115.12113,40.8613999 L115.12113,40.8613999 Z" id="_Составной_контур_5"></path>
                <rect id="_Контур_6" x="131.970562" y="0.323187644" width="5.61647716" height="39.9879198"></rect>
                <path d="M9.20293132,96.082813 C6.0454603,96.1239818 2.91843824,95.4615783 0.0488596779,94.1436872 L2.03165955,89.1386461 C4.19205629,90.2654467 6.58344044,90.8782389 9.01950049,90.9292803 C13.0986526,90.9292803 15.8413802,88.8241932 15.8413802,85.408886 C15.8413802,82.2556227 13.0462438,80.7270325 9.94538942,79.3469339 C5.57798883,77.3728689 0.468130135,74.7174893 0.468130135,68.4721065 C0.468130135,62.2267236 5.11504436,58.0864279 12.1290897,58.0864279 C15.0192145,58.0097443 17.8811783,58.6711225 20.4446204,60.0080841 L18.575373,64.6375288 C16.6454864,63.6006611 14.502126,63.0237175 12.3125205,62.9517121 C8.69631285,62.9517121 6.19815971,64.9170424 6.19815971,68.1139796 C6.19815971,71.3109169 9.29901413,72.9093855 12.4086034,74.3069537 C16.5838383,76.2635491 21.6849622,78.8141111 21.6849622,85.1119027 C21.6849622,91.7241472 16.8458824,96.0216694 9.19419652,96.0216694" id="_Контур_7"></path>
                <path d="M38.8575813,71.5554913 C34.5600592,71.5554913 31.7736576,74.8223069 31.6775748,80.5261321 L44.9632074,78.6830891 C44.9020638,73.8876832 42.5261978,71.5554913 38.8488465,71.5554913 M50.2040881,81.6441867 L31.974558,84.1860138 C32.5423201,89.1211765 35.7567269,91.6193296 40.3861715,91.6193296 C43.0105778,91.6410989 45.60578,91.0677056 47.9767138,89.9422478 L49.6013868,94.1262175 C46.5779629,95.4642938 43.2988355,96.1260813 39.9931055,96.0653434 C31.3369175,96.0653434 26.4891029,90.4925403 26.4891029,81.7315347 C26.4891029,73.3373907 31.1796911,67.4676043 38.8575813,67.4676043 C45.9851791,67.4676043 50.2128229,72.1669274 50.2128229,79.5390996 C50.2128229,80.2116793 50.2128229,80.9017286 50.1516793,81.6441867" id="_Составной_контур_6"></path>
                <path d="M67.1845416,96.082813 C61.0701807,96.082813 55.1043115,91.7154124 55.1043115,81.7490043 C55.1043115,71.7825961 61.0614459,67.4850739 67.1845416,67.4850739 C69.6490068,67.4204014 72.0783973,68.0793736 74.1723825,69.3805258 L72.3642787,73.3723299 C71.0498087,72.4842255 69.4957965,72.0180218 67.9095301,72.0359054 C64.223444,72.0359054 60.8692803,74.9445942 60.8692803,81.6441867 C60.8692803,88.3437792 64.3632008,91.3136116 67.9095301,91.3136116 C69.4965056,91.3365528 71.0520007,90.8699042 72.3642787,89.977187 L74.2073217,94.1087479 C72.1274583,95.4437115 69.6892886,96.1111604 67.2194808,96.0216694" id="_Контур_8"></path>
                <path d="M90.5588695,96.082813 C83.3439238,96.082813 79.465672,93.0780414 79.465672,86.1862833 L79.465672,68.0266316 L85.0122708,68.0266316 L85.0122708,86.2823661 C85.0122708,89.7762866 86.8989878,91.470838 90.5588695,91.470838 C92.2265618,91.5210819 93.8888364,91.2573699 95.459093,90.6934407 L95.459093,68.0266316 L100.970753,68.0266316 L100.970753,94.1349523 C98.7259086,95.2442721 94.6991653,96.0740782 90.4889911,96.0740782" id="_Контур_9"></path>
                <path d="M120.527972,72.315419 C119.601984,72.1079234 118.655573,72.0053712 117.706632,72.009701 C116.235165,71.973083 114.770343,72.2191968 113.39164,72.7346895 L113.39164,95.4451725 L107.836306,95.4451725 L107.836306,69.415465 C111.215927,68.1011643 114.814273,67.4401832 118.440355,67.4676043 C119.480892,67.451605 120.52097,67.5217226 121.549944,67.6772396 L120.527972,72.315419 Z" id="_Контур_10"></path>
                <path d="M126.476372,68.0266316 L132.07538,68.0266316 L132.07538,95.4713769 L126.476372,95.4713769 L126.476372,68.0266316 Z M129.262774,63.0652645 C127.478194,63.0896622 126.007968,61.6701344 125.969754,59.8857969 C126.095713,58.1552865 127.53642,56.8156334 129.271508,56.8156334 C131.006597,56.8156334 132.447304,58.1552865 132.573263,59.8857969 C132.530322,61.6784463 131.046877,63.0994306 129.254039,63.0652645 L129.262774,63.0652645 Z" id="_Составной_контур_7"></path>
                <path d="M148.496806,95.8382386 C143.657726,95.8382386 140.949938,93.1217154 140.949938,87.7934867 L140.949938,72.2193362 L137.220177,72.2193362 L137.220177,68.0266316 L140.941203,68.0266316 L140.941203,61.685166 L146.391719,59.9906145 L146.391719,68.0266316 L151.955787,68.0266316 L151.955787,72.2193362 L146.391719,72.2193362 L146.391719,87.4790338 C146.391719,89.977187 148.033861,90.9729543 150.060335,90.9729543 C150.709014,90.9826561 151.353201,90.8639119 151.955787,90.6235623 L151.955787,95.2093329 C150.841079,95.6342826 149.654523,95.8389635 148.461867,95.8120342" id="_Контур_11"></path>
                <path d="M167.023319,106.424818 L161.162267,106.424818 L165.293828,95.4713769 L155.004233,68.0266316 L161.240881,68.0266316 L167.20675,86.6841669 C167.614345,88.0401715 167.938144,89.4199639 168.176313,90.8157279 L168.228722,90.8157279 C168.428016,89.4170552 168.734639,88.0357911 169.145876,86.6841669 L175.146684,68.0266316 L181.374597,68.0266316 L167.023319,106.424818 Z" id="_Контур_12"></path>
            </g>
        </g>
    </g>
</svg>