<?xml version="1.0" encoding="UTF-8"?>
<svg width="32px" height="32px" viewBox="0 0 32 32" version="1.1" xmlns="http://www.w3.org/2000/svg" xmlns:xlink="http://www.w3.org/1999/xlink">
    <!-- Generator: Sketch 63 (92445) - https://sketch.com -->
    <title>logo / coin / flat / ada</title>
    <desc>Created with Sketch.</desc>
    <g id="logo-/-coin-/-flat-/-ada" stroke="none" stroke-width="1" fill="none" fill-rule="evenodd">
        <path d="M15.6074217,1.08876266 C16.3048956,0.71980839 17.156226,1.57576671 16.7850249,2.28276673 C16.5698563,2.85898992 15.7538541,3.01223386 15.3370849,2.57302114 C14.8959957,2.15134057 15.0399961,1.3181091 15.6074217,1.08876266 M8.10570501,1.90900735 C8.52938618,1.73199761 9.06570766,2.12588649 9.02244354,2.59444932 C9.06737166,3.10301142 8.45450597,3.47755 8.02263278,3.23573626 C7.45047121,3.01093519 7.51587939,2.06848495 8.10570501,1.90913722 M23.4699714,3.25002171 C22.8078255,3.16885437 22.7031212,2.11276985 23.340563,1.89939714 C23.8350284,1.6547263 24.2885336,2.11354905 24.3608538,2.58899488 C24.2571735,2.99496145 23.9220686,3.36677281 23.4699714,3.24937237 M9.81233371,5.14790897 C10.5206877,4.69337185 11.5313785,5.37024255 11.4224502,6.20503243 C11.3857141,7.04787411 10.282223,7.53617684 9.65975729,6.96631717 C9.05815564,6.51879291 9.14903589,5.49192863 9.81233371,5.1481687 M20.6252915,5.63049752 C20.9415804,4.80505812 22.2220959,4.77908457 22.5817769,5.5842646 C22.9372339,6.21022714 22.4999847,6.98540773 21.8666389,7.1981311 C21.0275966,7.35708922 20.2306664,6.43684636 20.6256755,5.63114686 M14.7039952,7.1509891 C14.6970832,6.44074239 15.3346529,5.91153132 15.9999988,5.86322052 C16.441216,5.95295913 16.9222413,6.14373485 17.1115538,6.59554475 C17.4643228,7.21890993 17.1511059,8.07681627 16.5136642,8.36291492 C16.2222074,8.52862617 15.8775024,8.46680912 15.5600616,8.44719909 C15.0748122,8.20551521 14.6661071,7.73149793 14.7041232,7.15111897 M3.54799645,8.18577531 C4.19503824,7.78214635 5.06800064,8.51875622 4.82300797,9.23186002 C4.68809559,9.84873182 3.87081334,10.0996363 3.40361205,9.7058773 C2.90441068,9.33692303 2.9838989,8.44966658 3.54799645,8.18577531 M27.5040305,8.18447664 C28.053024,7.75201704 28.9588825,8.24811183 28.8934743,8.95069634 C28.9303384,9.59198328 28.1471042,10.0754809 27.6020787,9.74535709 C27.0018851,9.47172575 26.9407009,8.53485982 27.5040305,8.1838273 M17.8412838,9.46055712 C18.7471423,9.13043331 19.8232413,9.52549099 20.3395947,10.3449565 C21.0206846,11.3467563 20.6583156,12.8723127 19.6012887,13.4471074 C18.5061177,14.126965 16.9068813,13.5510016 16.5024002,12.3098555 C16.0431349,11.1989668 16.7121927,9.80873255 17.8412838,9.46055712 M12.5260692,9.5705551 C13.530104,9.09004444 14.8812757,9.49263445 15.366269,10.5350829 C15.9370226,11.54935 15.4956774,12.9616617 14.4753866,13.4852885 C13.4538157,14.073979 12.0125318,13.628143 11.5185784,12.5386825 C10.9636969,11.4857148 11.4559862,10.0554813 12.5260692,9.5705551 M7.20394253,11.4166251 C7.28074274,10.7602735 7.89053642,10.3332684 8.50621812,10.2889835 C9.16964394,10.3701508 9.6995654,10.8928685 9.7716296,11.5746742 C9.72810948,12.2489475 9.21444407,12.9081562 8.51018613,12.9040004 C7.73527199,12.9716615 7.05597412,12.1897278 7.20394253,11.4171446 M22.9236658,10.4322276 C23.719188,9.9623661 24.8238311,10.6463795 24.788503,11.5736352 C24.8430311,12.5560847 23.6204998,13.2489292 22.8283056,12.6721865 C22.0053913,12.1923252 22.0695195,10.8410513 22.9236658,10.4323575 M10.3629912,13.8943719 C11.2934258,13.6346364 12.3572367,14.0795633 12.813558,14.9472097 C13.3127594,15.8205703 13.1091108,17.0337948 12.3327887,17.6744324 C11.3370739,18.6140256 9.50078086,18.2367597 8.9708594,16.9544456 C8.36196172,15.7790126 9.10154776,14.2037169 10.3629912,13.894242 M20.444427,13.8894369 C21.3488775,13.6269742 22.4114084,13.9803443 22.8976818,14.8166926 C23.5406275,15.7729088 23.2336827,17.1989866 22.2766241,17.8153389 C21.2739973,18.5310401 19.721097,18.1552028 19.1694155,17.0361324 C18.5006137,15.8784913 19.1736395,14.2425473 20.444427,13.8894369 M4.37871874,14.980326 C5.18243296,14.6718901 6.07331541,15.5717437 5.74768251,16.3801704 C5.54889797,17.1165206 4.52591915,17.3892428 3.99740569,16.8458762 C3.37903599,16.3360154 3.60802862,15.2014908 4.37884674,14.980326 M26.1632268,16.1535512 C26.1400587,15.4782389 26.6272281,14.8795486 27.3101099,14.841887 C27.8605114,14.9303269 28.3956809,15.3808381 28.3521608,15.988749 C28.4025929,16.7917213 27.4489903,17.3374256 26.7746845,16.9601598 C26.4586516,16.7971758 26.2966031,16.4683506 26.1632268,16.1531616 M0.427219852,15.3762927 C0.910677185,15.1621408 1.50882283,15.5873278 1.39848653,16.132123 C1.37288646,16.7489948 0.474963984,16.9861333 0.145235075,16.4706883 C-0.146221728,16.1134221 0.0281147525,15.5614842 0.427219852,15.3762927 Z M30.9142159,15.363306 C31.2546968,15.1173365 31.8010023,15.2940865 31.9357867,15.6977154 C32.1646513,16.1384866 31.7450662,16.7423716 31.2561048,16.6678275 C30.5696389,16.7313328 30.3473023,15.6699237 30.9142159,15.363306 M12.9894305,18.3242906 C14.261754,17.9885825 15.6294377,19.0645368 15.6375018,20.3942526 C15.720574,21.7373449 14.3734983,22.9284919 13.0710947,22.6182378 C12.0643719,22.4538252 11.2744817,21.4699472 11.3071218,20.4377583 C11.3044338,19.4507634 12.0386438,18.5331179 12.9895585,18.3242906 M18.0282924,18.3215634 C19.3196879,17.9553363 20.7280758,19.0510305 20.7075957,20.4110056 C20.7758199,21.7292931 19.4707283,22.8803109 18.1955888,22.6187573 C16.9955855,22.4613576 16.1102071,21.1237198 16.445184,19.942183 C16.6142725,19.1549247 17.2625942,18.5146767 18.0282924,18.3215634 M8.31306558,19.1397302 C9.20663605,18.9850577 10.0443984,19.9968573 9.68202936,20.857361 C9.41770863,21.7747468 8.101865,22.0235734 7.5201034,21.2742365 C6.83773352,20.5546393 7.34717492,19.239079 8.31306558,19.1397302 M23.0898103,19.1814177 C23.8866125,18.8428525 24.8646632,19.5420605 24.803351,20.4195768 C24.8353511,21.3855331 23.6277958,22.051495 22.8486576,21.4877391 C21.9654552,20.9812549 22.1267356,19.4920614 23.0898103,19.1814177 M27.2201257,23.3845874 C26.9081888,22.7944683 27.4748464,22.0124048 28.1206082,22.1216235 C28.4420171,22.1161691 28.6669137,22.3730475 28.8726102,22.5891474 C28.9148504,22.9388813 28.9857626,23.3553671 28.6996818,23.6254921 C28.3112007,24.1243141 27.4311983,23.981979 27.2201257,23.3851069 M3.54556445,22.2860361 C4.14908611,21.8783812 5.0175685,22.4862922 4.88188813,23.2022531 C4.80969593,23.8353583 4.02428576,24.1971699 3.50588434,23.838605 C2.9502348,23.5125071 2.97071486,22.5839527 3.54556445,22.2866854 M15.4687973,23.6119858 C16.2589435,23.2582261 17.2654103,23.9561353 17.19053,24.8391062 C17.2491542,25.8146727 16.0040948,26.4903746 15.2321246,25.9040217 C14.3745223,25.400914 14.5171147,23.9209412 15.4693093,23.6115962 M9.94558208,24.9184553 C10.6184799,24.5592412 11.5216504,25.1796194 11.4603383,25.9444105 C11.4808183,26.5718016 10.8772966,27.106597 10.266991,27.0138714 C9.76151757,27.0028327 9.43191667,26.5431009 9.26986822,26.105966 C9.27818824,25.6294813 9.47146878,25.0988416 9.94558208,24.9191047 M21.1319169,24.9301434 C21.8238868,24.4962553 22.8074415,25.1194906 22.7420333,25.9366185 C22.7598254,26.7906288 21.6482703,27.3377616 21.0039166,26.7767329 C20.3800428,26.3370007 20.456203,25.2798773 21.1319169,24.9301434 M23.0775223,29.8094046 C22.7703214,29.3368158 23.1320504,28.7674756 23.6318918,28.6598153 C24.0338129,28.7428008 24.4587741,29.0494185 24.3742938,29.5221371 C24.3156697,30.1618656 23.3934271,30.3582257 23.0775223,29.8094046 M7.63568772,29.3990225 C7.75831205,29.0244839 8.05527287,28.6522829 8.48983407,28.7496838 C9.12330782,28.7952673 9.31134033,29.7639509 8.75684281,30.0625168 C8.25828143,30.4035495 7.67984784,29.9365451 7.63568772,29.3990225 M15.0853082,29.8287549 C15.2066526,29.2747391 15.9134705,29.0052635 16.3793918,29.2995438 C16.6865927,29.4336972 16.7770889,29.7831713 16.8561931,30.0801788 C16.813953,30.2348513 16.7761929,30.3897835 16.7390728,30.544456 C16.5483523,30.7738025 16.3038716,31.0032788 15.9857907,30.9949672 C15.3958371,31.0650958 14.8637396,30.3884849 15.0853082,29.8287549" id="Shape" fill="#1D6AD7" fill-rule="nonzero"></path>
    </g>
</svg>