<?xml version="1.0" encoding="UTF-8"?>
<svg width="32px" height="32px" viewBox="0 0 32 32" version="1.1" xmlns="http://www.w3.org/2000/svg" xmlns:xlink="http://www.w3.org/1999/xlink">
    <!-- Generator: Sketch 54.1 (76490) - https://sketchapp.com -->
    <title>logo / coin / flat / btc </title>
    <desc>Created with Sketch.</desc>
    <g id="logo-/-coin-/-flat-/-btc-" stroke="none" stroke-width="1" fill="none" fill-rule="evenodd">
        <rect id="mask-copy-2" x="0" y="0" width="21.3333333" height="21.3333333"></rect>
        <circle id="Oval-2" fill="#F99400" cx="16" cy="16" r="16"></circle>
        <path d="M23.0680877,16.4807554 C22.5846635,15.8677656 21.8551692,15.4467217 20.8796484,15.2178814 C22.1219131,14.5965163 22.6678403,13.5419094 22.5179556,12.0538889 C22.4678481,11.5143016 22.3157733,11.0466564 22.0613811,10.6502661 C21.8068136,10.2537899 21.4632877,9.93505414 21.0294893,9.69392996 C20.5960413,9.45250513 20.1246184,9.26871988 19.6163157,9.14201586 C19.1078816,9.01531185 18.5241547,8.92331185 17.8655292,8.86614471 L17.8655292,5.77594117 L15.9398919,5.77594117 L15.9398919,8.78028664 C15.60644,8.78028664 15.0979183,8.78844724 14.4143704,8.80481138 L14.4143704,5.77594117 L12.4884703,5.77594117 L12.4884703,8.86614471 C12.2132729,8.87434826 11.8089959,8.87851446 11.2754642,8.87851446 L8.62440587,8.86614471 L8.62440587,10.8772596 L10.0123943,10.8772596 C10.6460097,10.8772596 11.0169985,11.1552782 11.1253605,11.7111008 L11.1253605,15.2305518 C11.2088439,15.2305518 11.2754642,15.234761 11.3255279,15.2429216 L11.1253605,15.2429216 L11.1253605,20.172309 C11.0587402,20.5891438 10.8170062,20.7977544 10.4001147,20.7977544 L9.01221392,20.7977544 L8.62449347,23.0418758 L11.1255795,23.0418758 C11.2840052,23.0418758 11.5131247,23.0439374 11.8133759,23.0476312 C12.1134519,23.0517544 12.3384542,23.053816 12.4885579,23.053816 L12.4885579,26.1807423 L14.4147646,26.1807423 L14.4147646,23.0905817 C14.7648168,23.098957 15.2733386,23.1029514 15.9402861,23.1029514 L15.9402861,26.1807423 L17.8659672,26.1807423 L17.8659672,23.053816 C18.5497341,23.0211737 19.1561933,22.9601839 19.685345,22.8699449 C20.2147595,22.7797059 20.721354,22.6389141 21.2047782,22.4466676 C21.6881585,22.2546788 22.0924355,22.0154015 22.4175215,21.7292652 C22.7427827,21.4433865 23.0114101,21.0794239 23.2243672,20.6378926 C23.4366236,20.1963613 23.5722732,19.685422 23.63044,19.1048599 C23.7392838,17.9688189 23.5515994,17.0940028 23.0680877,16.4807554 Z M14.4518197,11.0117806 C14.5102055,11.0117806 14.674851,11.0097189 14.9457998,11.0055957 C15.2168799,11.0013865 15.4418822,10.9973492 15.6211131,10.9932259 C15.8003878,10.9891886 16.0421656,10.9994108 16.3465779,11.0239356 C16.6508587,11.0484603 16.9071782,11.0812315 17.1155363,11.1220345 C17.3238944,11.1628375 17.5533643,11.2303128 17.8032452,11.3243315 C18.053564,11.4182642 18.2535125,11.5327703 18.4033972,11.6676349 C18.5535885,11.8024995 18.680697,11.9742586 18.7847228,12.1827404 C18.8890551,12.3911793 18.9411775,12.6302848 18.9411775,12.900014 C18.9411775,13.1289402 18.9037283,13.337465 18.8287859,13.5255882 C18.753975,13.7135826 18.6411453,13.8709963 18.4912606,13.9977003 C18.3413321,14.1244472 18.1868046,14.234916 18.0283788,14.3288487 C17.8701283,14.4227815 17.6677708,14.4984603 17.4219196,14.5556274 C17.1761122,14.6128805 16.9614468,14.6578497 16.7781424,14.6904921 C16.5947067,14.7232203 16.3654996,14.7457694 16.090346,14.7579673 C15.8151485,14.7701653 15.606659,14.7784977 15.4650088,14.782535 C15.3232271,14.7865724 15.1294545,14.7865724 14.8834281,14.782535 C14.6373579,14.7784977 14.4937366,14.7763501 14.4519511,14.7763501 L14.4519511,11.0117376 L14.4518197,11.0117376 L14.4518197,11.0117806 Z M19.7104864,19.3625201 C19.6310764,19.5506433 19.5291093,19.7142418 19.4041469,19.8533156 C19.2789656,19.9920457 19.1142326,20.1147983 18.9100793,20.220929 C18.7059698,20.3273604 18.5077733,20.4130467 18.3161907,20.4784603 C18.1243453,20.5441316 17.8929044,20.6010411 17.6222184,20.6502624 C17.3509192,20.6993548 17.1134777,20.733887 16.9090178,20.7544603 C16.7048645,20.7749477 16.4611157,20.7912259 16.1775524,20.8035957 C15.8942081,20.8156218 15.6731479,20.8218497 15.5148097,20.8218497 C15.356384,20.8218497 15.1562603,20.8196162 14.9144825,20.8156218 C14.6725733,20.8117992 14.5184838,20.8097376 14.4517321,20.8097376 L14.4517321,16.6647983 C14.5183524,16.6647983 14.7163737,16.6608039 15.0457521,16.6524715 C15.3751743,16.644225 15.6438893,16.6404024 15.852335,16.6404024 C16.0607369,16.6404024 16.3484613,16.6524715 16.7154204,16.6771681 C17.0820291,16.701521 17.3905147,16.7381578 17.6408336,16.7872073 C17.8908458,16.8363427 18.163678,16.9118497 18.4598558,17.0141578 C18.755727,17.1162941 18.9955337,17.2409365 19.1790133,17.388085 C19.362449,17.5354911 19.5165824,17.7232278 19.6415885,17.952197 C19.7669012,18.1810373 19.8294043,18.4426919 19.8294043,18.7370747 C19.8293605,18.9662157 19.7898088,19.1743539 19.7104864,19.3625201 Z" id="Shape" fill="#FFFFFF" fill-rule="nonzero" transform="translate(16.142407, 15.978342) rotate(15.000000) translate(-16.142407, -15.978342) "></path>
    </g>
</svg>