<svg width="32" height="32" viewBox="0 0 32 32" fill="none" xmlns="http://www.w3.org/2000/svg">
<path fill-rule="evenodd" clip-rule="evenodd" d="M0 16C0 7.16336 7.16336 0 16 0C24.8366 0 32 7.16336 32 16C32 24.8366 24.8366 32 16 32C7.16336 32 0 24.8366 0 16ZM10.8342 24.6416H16.6286H16.6288C16.6288 24.6416 24.7762 25.3245 24.7762 16.139C24.7762 7.30973 17.3361 7.34104 15.8981 7.34709C15.8645 7.34723 15.8341 7.34736 15.8072 7.34736H10.8341V15.0512H8.79168V16.9382H10.8342V24.6416ZM14.0979 10.5439H16.384C17.239 10.5439 21.5408 10.8881 21.5477 16.2012C21.5545 21.4511 17.2173 21.4456 16.5196 21.4448C16.5112 21.4448 16.5033 21.4447 16.496 21.4447H14.0979V16.938H17.6945V15.051H14.0979V10.5439Z" fill="#C2A633"/>
</svg>
