<svg width="32" height="32" viewBox="0 0 32 32" fill="none" xmlns="http://www.w3.org/2000/svg">
<path d="M16.0005 6.71231C19.0461 6.71231 21.515 5.2097 21.515 3.35615C21.515 1.5026 19.0461 0 16.0005 0C12.955 0 10.4861 1.5026 10.4861 3.35615C10.4861 5.2097 12.955 6.71231 16.0005 6.71231Z" fill="#E6007A"/>
<path d="M16.0005 31.9999C19.0461 31.9999 21.515 30.4973 21.515 28.6438C21.515 26.7902 19.0461 25.2876 16.0005 25.2876C12.955 25.2876 10.4861 26.7902 10.4861 28.6438C10.4861 30.4973 12.955 31.9999 16.0005 31.9999Z" fill="#E6007A"/>
<path d="M8.3158 11.3582C9.83857 8.59822 9.82869 5.60903 8.29373 4.68163C6.75877 3.75423 4.27999 5.2398 2.75722 7.99974C1.23445 10.7597 1.24433 13.7489 2.77929 14.6763C4.31425 15.6037 6.79303 14.1181 8.3158 11.3582Z" fill="#E6007A"/>
<path d="M29.2415 24.0002C30.7643 21.2402 30.7552 18.2516 29.2213 17.3248C27.6874 16.398 25.2095 17.8841 23.6867 20.644C22.1639 23.404 22.173 26.3927 23.7069 27.3194C25.2408 28.2462 27.7188 26.7601 29.2415 24.0002Z" fill="#E6007A"/>
<path d="M8.29449 27.3191C9.82945 26.3917 9.83933 23.4025 8.31656 20.6426C6.7938 17.8826 4.31502 16.397 2.78006 17.3245C1.24509 18.2519 1.23521 21.241 2.75798 24.001C4.28075 26.7609 6.75953 28.2465 8.29449 27.3191Z" fill="#E6007A"/>
<path d="M29.2226 14.6769C30.7565 13.7502 30.7655 10.7615 29.2428 8.00153C27.72 5.24158 25.2421 3.7555 23.7081 4.68228C22.1742 5.60905 22.1652 8.59773 23.6879 11.3577C25.2107 14.1176 27.6887 15.6037 29.2226 14.6769Z" fill="#E6007A"/>
</svg>
