<svg xmlns="http://www.w3.org/2000/svg" viewBox="0 0 3611.37 669.35"><defs><style>.cls-1{fill:#fff;}</style></defs><g id="Layer_2" data-name="Layer 2"><g id="Layer_1-2" data-name="Layer 1"><path class="cls-1" d="M3420.52,551.75c17.33,0,32.51-5.69,43.66-15.18a49.49,49.49,0,0,0,17.08-37.49c0-13.28-5.22-24.67-14.71-32.5-7.36-5.93-17.79-10-30.6-11.86l-23.73-3.56c-17.56-2.61-24-7.82-24-20.64V427c0-16.37,8.3-23,28.24-23h6.4c20.64,0,29.18,7.35,29.18,27.29V435h25.62v-2.14c0-29.17-25.62-52-57.65-52-16.13,0-30.6,5.46-41,14.71a46.08,46.08,0,0,0-15.66,34.41,42,42,0,0,0,10.44,28.23c7.11,7.83,18,13.05,32,15.18l22.54,3.32c19.92,2.85,26.33,8.3,26.33,23.49v3.56c0,17.32-8.54,24.91-30.37,24.91h-6.87c-23.74,0-33.46-9.49-33.46-33.69v-1.89h-25.62v3.32c0,31.55,26.57,55.27,62.15,55.27m-181.43-2.37-1.9-139h3.08l50.3,139h37.72V383.31h-23.72l1.65,139h-3.08l-50-139h-37.73V549.38Zm-119.24-20.64c-22.07,0-32.74-7.11-32.74-40.1V444.05c0-33.22,10.67-40.1,32.74-40.1h4.74c22.07,0,32.74,6.88,32.74,40.1v44.59c0,33.22-10.67,40.1-32.74,40.1Zm2.6,23c39.39,0,61.46-30.84,61.46-85.4,0-55.28-22.07-85.42-61.46-85.42-39.62,0-61.92,30.14-61.92,85.42,0,54.33,22.54,85.4,61.92,85.4m-86.21-168.44H2931.85v21.36H2972V528h-40.1v21.35h104.39V528h-40.09V404.67h40.09Zm-133.82,0H2774.31v21.83h52V549.38h24.2V405.14h52Zm-210.6,168.44c17.56,0,32.73-6.64,43.65-20.64,8.3-10.43,11.86-23.48,11.86-43.89V383.31h-24.2v117c0,20.88-7.35,28-29.65,28h-6.17c-22.3,0-29.65-7.11-29.65-28v-117h-24.21V487.22c0,20.17,3.56,33.22,12.1,43.89,10.92,14,25.86,20.64,43.42,20.64ZM2523.38,383.31h-24.2V549.38H2608.3V527.55h-84.92ZM2399.77,528.74c-22.06,0-32.74-7.11-32.74-40.1V444.05c0-33.22,10.68-40.1,32.74-40.1h4.75c22.06,0,32.73,6.88,32.73,40.1v44.59c0,33.22-10.67,40.1-32.73,40.1Zm2.61,23c39.38,0,61.44-30.84,61.44-85.4,0-55.28-22.06-85.42-61.44-85.42-39.62,0-61.92,30.14-61.92,85.42,0,54.33,22.54,85.4,61.92,85.4m-147.61,0c17.32,0,32.5-5.69,43.66-15.18a49.48,49.48,0,0,0,17.07-37.49c0-13.28-5.21-24.67-14.71-32.5-7.35-5.93-17.79-10-30.6-11.86l-23.72-3.56c-17.56-2.61-24-7.82-24-20.64V427c0-16.37,8.31-23,28.23-23h6.41c20.64,0,29.19,7.35,29.19,27.29V435H2312v-2.14c0-29.17-25.62-52-57.65-52-16.14,0-30.61,5.46-41.05,14.71a46.11,46.11,0,0,0-15.66,34.41A41.93,41.93,0,0,0,2208,458.28c7.11,7.83,18,13.05,32,15.18l22.54,3.32c19.93,2.85,26.33,8.3,26.33,23.49v3.56c0,17.32-8.54,24.91-30.36,24.91h-6.89c-23.72,0-33.44-9.49-33.44-33.69v-1.89h-25.63v3.32c0,31.55,26.58,55.27,62.16,55.27"/><path class="cls-1" d="M3527.62,213.44h73.06V191.62h-73.06V141.8h80.19V120H3503.42V286h107.95V264.21h-83.75Zm-118,75c17.32,0,32.5-5.69,43.65-15.18a49.48,49.48,0,0,0,17.09-37.49c0-13.28-5.23-24.67-14.71-32.5-7.36-5.93-17.8-10-30.61-11.86l-23.73-3.56c-17.55-2.61-24-7.83-24-20.64v-3.56c0-16.37,8.31-23,28.24-23h6.4c20.64,0,29.18,7.35,29.18,27.28v3.79h25.62v-2.12c0-29.19-25.62-52-57.64-52-16.14,0-30.61,5.45-41.05,14.7a46.08,46.08,0,0,0-15.66,34.41,42.06,42.06,0,0,0,10.44,28.23c7.12,7.83,18,13.05,32,15.18l22.54,3.32c19.93,2.85,26.33,8.31,26.33,23.49v3.56c0,17.32-8.53,24.91-30.37,24.91h-6.87c-23.72,0-33.46-9.49-33.46-33.69v-1.9H3347.5v3.33c0,31.54,26.57,55.27,62.16,55.27M3320.46,120H3216.07v21.36h40.09V264.68h-40.09V286h104.39V264.68h-40.09V141.32h40.09ZM3097.23,198V141.8h38c18.51,0,25.15,6.16,25.15,23v10c0,17.32-6.4,23.25-25.15,23.25Zm60.27,10c17.31-4.51,29.41-20.65,29.41-39.86,0-12.1-4.74-23-13.76-31.79-11.39-10.92-26.57-16.38-46.26-16.38h-53.38V286h23.72V219.85h35.6c18.26,0,25.62,7.59,25.62,26.57V286h24.2V250.21c0-26.1-6.17-36.06-25.15-38.91Zm-140-29.42c0,19-7.12,25.86-27,25.86h-39.62V141.8h39.62c19.92,0,27,6.87,27,25.86ZM2986.66,120h-60V286h24.2V226.25h35.82c33,0,57.42-22.53,57.42-52.91,0-30.59-24.44-53.38-57.42-53.38M2803.72,198V141.8h38c18.51,0,25.15,6.16,25.15,23v10c0,17.32-6.41,23.25-25.15,23.25ZM2864,208c17.31-4.51,29.41-20.65,29.41-39.86,0-12.1-4.74-23-13.76-31.79-11.39-10.92-26.57-16.38-46.26-16.38H2780V286h23.72V219.85h35.59c18.26,0,25.63,7.59,25.63,26.57V286h24.19V250.21c0-26.1-6.17-36.06-25.14-38.91Zm-200,5.45h73.06V191.62H2664V141.8h80.19V120H2639.79V286h107.95V264.21H2664ZM2609.76,120H2481.64V141.8h52V286h24.2V141.8h52ZM2365.23,286l-1.9-139h3.09l50.29,139h37.72V120h-23.72l1.66,139h-3.08l-50.06-139h-37.72V286ZM2227,213.44h73.08V191.62H2227V141.8h80.19V120H2202.81V286h108V264.21H2227Z"/><path class="cls-1" d="M0,0V190.06H42.14V42.14H289.22V0ZM0,479.29V669.35H289.22V627.2H42.14V479.29ZM331.78,190.06H289.64V479.29H479.7v-38H331.78V190.06ZM575.55,352.85H702.81v-38H575.55V228.07H715.2v-38H533.4V479.29h188v-38H575.55V352.85ZM865.18,479.29c78.92,0,108.26-59.92,108.26-144.62,0-85.94-31.4-144.61-109.08-144.61H775.11V479.29ZM816.43,228.07h45c42.55,0,65.69,10.75,65.69,68.59v76c0,57.84-23.14,68.58-65.69,68.58h-45V228.07Zm364.41,140.07V388c0,41.73-15.28,55.37-53.71,55.37H1118c-38.43,0-57-12.4-57-69.83V295.83c0-57.84,19.42-69.82,57.85-69.82h8.26c37.6,0,49.58,14.05,50,52.89h45.45c-4.13-57-42.14-93-99.16-93-27.68,0-50.82,8.68-68.17,25.2-26,24.38-40.49,65.7-40.49,123.54,0,55.78,12.39,97.1,38,122.72,17.35,16.94,41.32,26,64.87,26,24.79,0,47.51-9.92,59.08-31.4h5.79v27.27h38V330.13h-112v38Zm138.42-15.29h127.26v-38H1319.26V228.07h139.65v-38h-181.8V479.29h188v-38H1319.26V352.85Zm347.88-9.5c30.17-7.85,51.24-36,51.24-69.41,0-21.08-8.27-40.08-24-55.37-19.83-19-46.27-28.51-80.57-28.51h-93V479.29h41.32V364h62c31.82,0,44.63,13.22,44.63,46.28v69h42.14V416.9c0-45.45-10.74-62.81-43.8-67.77v-5.78ZM1562.2,326V228.07h66.11c32.22,0,43.79,10.75,43.79,40.08v17.36c0,30.16-11.15,40.49-43.79,40.49ZM1711.35,0V42.14h247.08V190.06h42.15V0Zm0,627.2v42.15h289.23V479.29h-42.15V627.2Z"/></g></g></svg>