<?xml version="1.0" encoding="UTF-8"?>
<svg width="32px" height="32px" viewBox="0 0 32 32" version="1.1" xmlns="http://www.w3.org/2000/svg" xmlns:xlink="http://www.w3.org/1999/xlink">
    <!-- Generator: Sketch 61 (89581) - https://sketch.com -->
    <title>logo / token / flat / link</title>
    <desc>Created with Sketch.</desc>
    <g id="logo-/-token-/-flat-/-link" stroke="none" stroke-width="1" fill="none" fill-rule="evenodd">
        <polygon id="Path" fill="#FFFFFF" fill-rule="nonzero" points="16 0 13.037037 1.68807339 4.96296296 6.31192661 2 8 2 24 4.96296296 25.6880734 13.1111111 30.3119266 16.0740741 32 19.037037 30.3119266 27.037037 25.6880734 30 24 30 8 27.037037 6.31192661 18.962963 1.68807339"></polygon>
        <path d="M16,0 L13.037037,1.68807339 L4.96296296,6.31192661 L2,8 L2,24 L4.96296296,25.6880734 L13.1111111,30.3119266 L16.0740741,32 L19.037037,30.3119266 L27.037037,25.6880734 L30,24 L30,8 L27.037037,6.31192661 L18.962963,1.68807339 L16,0 Z M7.92592593,20.6238532 L7.92592593,11.3761468 L16,6.75229358 L24.0740741,11.3761468 L24.0740741,20.6238532 L16,25.2477064 L7.92592593,20.6238532 Z" id="Shape" fill="#2A5ADA" fill-rule="nonzero"></path>
    </g>
</svg>