<?xml version="1.0" encoding="UTF-8"?>
<svg width="32px" height="32px" viewBox="0 0 32 32" version="1.1" xmlns="http://www.w3.org/2000/svg" xmlns:xlink="http://www.w3.org/1999/xlink">
    <!-- Generator: Sketch 55 (78076) - https://sketchapp.com -->
    <title>logo / coin / flat / ltc</title>
    <desc>Created with Sketch.</desc>
    <g id="logo-/-coin-/-flat-/-ltc" stroke="none" stroke-width="1" fill="none" fill-rule="evenodd">
        <rect id="mask-copy-2" x="0" y="0" width="21.3333333" height="21.3333333"></rect>
        <g id="Group" fill-rule="nonzero">
            <path d="M15.9228916,3.37507799e-14 C7.13253012,3.37507799e-14 4.26325641e-14,7.13253012 4.26325641e-14,15.9228916 C4.26325641e-14,24.713253 7.13253012,31.8457831 15.9228916,31.8457831 C24.713253,31.8457831 31.8457831,24.713253 31.8457831,15.9228916 L31.8457831,15.9228916 C31.8843373,7.13253012 24.7518072,3.37507799e-14 15.9228916,3.37507799e-14 Z" id="Shape" fill="#345D9D"></path>
            <path d="M16.1927711,16.4626506 L14.5349398,22.053012 L23.4024096,22.053012 C23.6722892,22.053012 23.8650602,22.2457831 23.8650602,22.5156627 C23.8650602,22.5542169 23.8650602,22.5927711 23.8650602,22.6313253 L23.0939759,25.2915663 C23.0168675,25.5614458 22.7855422,25.7156627 22.5156627,25.7156627 L8.94457831,25.7156627 L11.2192771,17.9662651 L8.6746988,18.7373494 L9.25301205,16.9638554 L11.7975904,16.1927711 L14.9975904,5.32048193 C15.0746988,5.05060241 15.3060241,4.89638554 15.5759036,4.89638554 L19.0072289,4.89638554 C19.2771084,4.89638554 19.4698795,5.08915663 19.4698795,5.35903614 C19.4698795,5.39759036 19.4698795,5.43614458 19.4698795,5.4746988 L16.7710843,14.6506024 L19.3156627,13.8795181 L18.7759036,15.7301205 L16.1927711,16.4626506 Z" id="Path" fill="#FFFFFF"></path>
        </g>
    </g>
</svg>