<svg width="32" height="32" viewBox="0 0 32 32" fill="none" xmlns="http://www.w3.org/2000/svg">
<path d="M25.04 2.53333L18.7802 11.8333C18.3474 12.4667 19.1798 13.2333 19.7791 12.7L25.939 7.33333C26.1054 7.2 26.3385 7.3 26.3385 7.53333V24.3C26.3385 24.5333 26.0388 24.6333 25.9057 24.4667L7.25971 2.13333C6.66038 1.4 5.79467 1 4.82908 1H4.16315C2.43174 1 1 2.43333 1 4.2V27.8C1 29.5667 2.43174 31 4.19645 31C5.29523 31 6.32741 30.4333 6.92675 29.4667L13.1865 20.1667C13.6193 19.5333 12.7869 18.7667 12.1876 19.3L6.02775 24.6333C5.86127 24.7667 5.62819 24.6667 5.62819 24.4333V7.7C5.62819 7.46667 5.92786 7.36667 6.06104 7.53333L24.707 29.8667C25.3063 30.6 26.2053 31 27.1376 31H27.8036C29.5683 31 31 29.5667 31 27.8V4.2C31 2.43333 29.5683 1 27.8036 1C26.6715 1 25.6393 1.56667 25.04 2.53333Z" fill="black"/>
</svg>
