<?xml version="1.0" encoding="UTF-8"?>
<svg width="512px" height="512px" viewBox="0 0 512 512" version="1.1" xmlns="http://www.w3.org/2000/svg" xmlns:xlink="http://www.w3.org/1999/xlink">
    <title>icon_signup</title>
    <defs>
        <linearGradient x1="50%" y1="100%" x2="50%" y2="0%" id="linearGradient-1">
            <stop stop-color="#2B78FF" offset="0%"></stop>
            <stop stop-color="#4DBDFF" offset="100%"></stop>
        </linearGradient>
        <linearGradient x1="50%" y1="100%" x2="50%" y2="0%" id="linearGradient-2">
            <stop stop-color="#ADDCFF" offset="0%"></stop>
            <stop stop-color="#EAF6FF" offset="50.28%"></stop>
            <stop stop-color="#EAF6FF" offset="100%"></stop>
        </linearGradient>
    </defs>
    <g id="icon_signup" stroke="none" stroke-width="1" fill="none" fill-rule="evenodd">
        <g id="confirm" fill-rule="nonzero">
            <path d="M75,271 C69.867,271 64.85,271.517 60,272.5 L51,292 L51,345 L100,345 L100,291 L90,271 L75,271 Z M497,0 L15,0 C6.716,0 0,6.716 0,15 L0,195 C0,203.284 6.716,210 15,210 L497,210 C505.284,210 512,203.284 512,195 L512,15 C512,6.716 505.284,0 497,0 Z" id="Shape" fill="url(#linearGradient-1)"></path>
            <path d="M165,271 L150,271 L150,150 C150,133.432 136.569,120 120,120 C103.431,120 90,133.432 90,150 L90,316 C90,324.284 83.284,331 75,331 C66.716,331 60,324.284 60,316 L60,272.5 C25.912,279.409 0.071,309.388 0.000478711649,345.467 C-0.082,387.869 9.748,430.037 28.417,467.373 L30,470.541 L30,497 C30,505.284 36.716,512 45,512 L195,512 C203.284,512 210,505.284 210,497 L210,470.541 L211.584,467.374 C230.252,430.038 240.082,387.872 239.999521,345.468 C239.919,304.255 206.213,271 165,271 Z M286,120 L195,120 C186.716,120 180,126.716 180,135 C180,143.284 186.716,150 195,150 L286,150 C294.284,150 301,143.284 301,135 C301,126.716 294.284,120 286,120 Z M286,60 L75,60 C66.716,60 60,66.716 60,75 C60,83.284 66.716,90 75,90 L286,90 C294.284,90 301,83.284 301,75 C301,66.716 294.284,60 286,60 Z M431.606,79.394 C425.749,73.536 416.251,73.536 410.393,79.394 L376,113.787 L371.606,109.394 C365.749,103.536 356.251,103.536 350.393,109.394 C344.535,115.252 344.535,124.749 350.393,130.607 L365.393,145.607 C368.322,148.536 372.161,150 376,150 C379.839,150 383.678,148.536 386.606,145.606 L431.606,100.606 C437.464,94.749 437.464,85.251 431.606,79.394 Z" id="Shape" fill="url(#linearGradient-2)"></path>
        </g>
    </g>
</svg>