<?xml version="1.0" encoding="UTF-8"?>
<svg width="512px" height="512px" viewBox="0 0 512 512" version="1.1" xmlns="http://www.w3.org/2000/svg" xmlns:xlink="http://www.w3.org/1999/xlink">
    <title>icon_medal</title>
    <defs>
        <linearGradient x1="50%" y1="100%" x2="50%" y2="0%" id="linearGradient-1">
            <stop stop-color="#2B78FF" offset="0%"></stop>
            <stop stop-color="#4DBDFF" offset="100%"></stop>
        </linearGradient>
        <linearGradient x1="50%" y1="100%" x2="50%" y2="0%" id="linearGradient-2">
            <stop stop-color="#ADDCFF" offset="0%"></stop>
            <stop stop-color="#EAF6FF" offset="50.28%"></stop>
            <stop stop-color="#EAF6FF" offset="100%"></stop>
        </linearGradient>
    </defs>
    <g id="icon_medal" stroke="none" stroke-width="1" fill="none" fill-rule="evenodd">
        <g id="best-seller" fill-rule="nonzero">
            <path d="M400.442,215.54 C398.554,211.973 398.554,207.713 400.441,204.147 L406.741,192.246 C416.434,173.935 411.167,150.857 394.489,138.565 L383.65,130.576 C380.401,128.181 378.553,124.344 378.707,120.313 L379.22,106.856 C380.008,86.154 365.249,67.647 344.89,63.808 L331.657,61.313 C327.691,60.565 324.362,57.91 322.751,54.21 L317.374,41.864 C309.101,22.87 287.776,12.597 267.766,17.974 L254.761,21.468 C250.865,22.514 246.711,21.567 243.655,18.933 L233.454,10.142 C217.761,-3.38 194.089,-3.38 178.394,10.142 C178.394,10.142 168.192,18.933 168.192,18.933 C165.135,21.567 160.984,22.514 157.087,21.468 L144.082,17.974 C124.071,12.599 102.747,22.87 94.474,41.864 L89.096,54.211 C87.485,57.91 84.156,60.565 80.19,61.313 L66.957,63.808 C46.598,67.647 31.839,86.154 32.627,106.856 L33.139,120.313 C33.293,124.345 31.445,128.182 28.197,130.576 L17.357,138.566 C0.68,150.858 -4.587,173.936 5.105,192.247 L11.405,204.148 C13.293,207.714 13.293,211.973 11.405,215.54 L5.105,227.441 C-4.587,245.751 0.68,268.829 17.357,281.122 L28.196,289.111 C31.445,291.506 33.292,295.342 33.138,299.376 L32.626,312.832 C31.838,333.535 46.597,352.042 66.956,355.88 L73.898,357.189 L74.923,389.244 L148.923,426.845 L181.02,411.62 C188.38,416.994 197.15,419.688 205.923,419.688 C214.562,419.688 223.199,417.081 230.489,411.871 L256.923,429.844 L330.923,392.092 L337.516,357.27 L344.891,355.879 C365.25,352.041 380.009,333.534 379.221,312.83 L378.708,299.375 C378.555,295.342 380.402,291.505 383.65,289.111 L394.49,281.122 C411.168,268.83 416.435,245.752 406.742,227.441 L400.442,215.54 Z" id="Path" fill="url(#linearGradient-1)"></path>
            <path d="M340.921,209.843 C340.921,135.404 280.36,74.843 205.921,74.843 C131.482,74.843 70.921,135.404 70.921,209.843 C70.921,284.282 131.482,344.843 205.921,344.843 C280.36,344.843 340.921,284.282 340.921,209.843 Z M273.455,202.043 L250.57,224.35 L255.972,255.848 C256.937,261.475 254.623,267.163 250.004,270.519 C245.426,273.845 239.307,274.341 234.207,271.661 L205.92,256.79 L177.633,271.661 C172.579,274.318 166.456,273.876 161.836,270.519 C157.217,267.163 154.903,261.476 155.869,255.848 L161.271,224.35 L138.386,202.043 C134.298,198.058 132.826,192.097 134.591,186.667 C136.355,181.237 141.049,177.279 146.7,176.458 L178.326,171.863 L192.469,143.205 C194.996,138.085 200.211,134.843 205.92,134.843 C211.629,134.843 216.844,138.084 219.371,143.204 L233.515,171.862 L265.141,176.457 C270.791,177.278 275.485,181.236 277.249,186.666 C279.013,192.096 277.543,198.058 273.455,202.043 L273.455,202.043 Z M168.19,400.753 C165.134,398.119 160.982,397.173 157.084,398.218 L144.079,401.711 C124.069,407.088 102.744,396.815 94.471,377.821 L89.094,365.476 C87.482,361.775 84.153,359.121 80.187,358.372 L73.896,357.186 L26.086,443.579 C23.431,448.377 23.606,454.241 26.541,458.872 C29.476,463.503 34.708,466.168 40.176,465.811 L84.081,462.98 L103.654,503.382 C106.101,508.433 111.163,511.695 116.774,511.838 C116.901,511.841 117.028,511.843 117.155,511.843 C122.62,511.843 127.666,508.866 130.304,504.058 L181.018,411.618 C180.122,410.964 179.243,410.277 178.391,409.543 L168.19,400.753 Z M385.278,443.58 L337.514,357.268 L331.655,358.372 C327.69,359.12 324.36,361.775 322.75,365.475 L317.372,377.821 C310.579,393.417 294.981,403.132 278.543,403.133 C274.962,403.133 271.344,402.672 267.764,401.711 L254.759,398.218 C250.863,397.172 246.709,398.119 243.654,400.753 L233.452,409.543 C232.493,410.37 231.503,411.144 230.488,411.869 L281.061,504.057 C283.7,508.867 288.746,511.843 294.21,511.843 C294.337,511.843 294.465,511.843 294.592,511.838 C300.202,511.696 305.264,508.434 307.711,503.383 L327.285,462.981 L371.189,465.812 C376.646,466.169 381.888,463.505 384.824,458.873 C387.758,454.241 387.933,448.378 385.278,443.58 L385.278,443.58 Z" id="Shape" fill="url(#linearGradient-2)"></path>
        </g>
    </g>
</svg>