<svg width="32" height="32" viewBox="0 0 32 32" fill="none" xmlns="http://www.w3.org/2000/svg">
<path d="M6.80271 2.98389L31.0334 19.5285L25.0408 28.387L0.810181 11.7121L6.80271 2.98389Z" fill="url(#paint0_linear)"/>
<path d="M31.0332 19.5283C28.9488 22.5245 21.9141 21.3521 15.2702 16.6623C8.49608 12.1027 4.84846 5.97993 6.80254 2.98367C8.8869 -0.0125947 15.9216 1.15986 22.5655 5.84966C29.3397 10.2789 32.9873 16.532 31.0332 19.5283Z" fill="url(#paint1_linear)"/>
<path d="M25.0408 28.2562C22.9564 31.2524 15.9217 30.08 9.27781 25.3902C2.63392 20.7004 -1.14397 14.7079 0.940383 11.5813C3.02474 8.58506 10.0594 9.75751 16.7033 14.4473C23.3472 19.1371 26.9948 25.2599 25.0408 28.2562Z" fill="url(#paint2_linear)"/>
<path d="M31.0334 19.528L25.0408 28.3866C22.9565 31.3828 15.9218 30.0801 9.27787 25.5206C7.97515 24.6087 6.8027 23.6968 5.63025 22.6546C6.54216 22.5243 7.71461 22.0032 8.88706 20.7005C10.9714 18.4859 12.0136 17.9648 12.9255 18.095C13.8374 18.095 14.8796 19.0069 16.5731 21.2216C18.2667 23.4362 20.6116 24.0876 22.0446 22.9151C22.1748 22.7848 22.3051 22.7848 22.4354 22.6546C23.6078 21.7427 23.9986 21.3519 26.2133 17.1831C26.7344 16.141 28.5582 14.4474 31.0334 15.2291C31.6847 16.9226 31.6847 18.3556 31.0334 19.528Z" fill="#0E0F23"/>
<path fill-rule="evenodd" clip-rule="evenodd" d="M30.1214 19.0072C28.2976 21.6126 21.9142 20.3099 15.7914 16.0109C9.53837 11.7119 5.89075 6.24047 7.71456 3.63502C9.53837 1.02958 15.9217 2.3323 22.0445 6.63129C28.1673 10.9303 31.8149 16.4017 30.1214 19.0072ZM24.3894 15.099C23.4775 16.4017 20.351 15.7503 17.2244 13.666C14.2282 11.5816 12.4044 8.84592 13.3163 7.54319C14.2282 6.24047 17.3547 6.89183 20.4812 8.97619C23.4775 11.0605 25.3013 13.7963 24.3894 15.099Z" fill="white"/>
<path d="M6.28159 5.97964C6.28159 5.84937 6.15132 5.7191 6.02104 5.84937C5.89077 5.97964 5.7605 5.97964 5.7605 6.10992C5.89077 6.50073 6.02104 6.76128 6.02104 7.02182C6.02104 7.15209 6.15132 7.28237 6.28159 7.15209C6.41186 7.15209 6.54213 7.02182 6.41186 6.89155C6.41186 6.63101 6.41186 6.37046 6.28159 5.97964Z" fill="white"/>
<path d="M6.93293 8.06412C6.93293 7.93384 6.80266 7.80357 6.67239 7.93384C6.54211 8.06412 6.54211 8.06412 6.54211 8.19439C7.97511 11.4512 10.9714 14.9685 14.8795 17.574C15.0098 17.7043 15.1401 17.574 15.2704 17.574C15.4006 17.4437 15.2704 17.3135 15.2704 17.1832C11.2319 14.5777 8.36593 11.1907 6.93293 8.06412Z" fill="white"/>
<path d="M22.6958 20.8311C22.5656 20.8311 22.4353 20.8311 22.4353 20.9613C22.4353 21.0916 22.4353 21.2219 22.5656 21.2219C22.9564 21.3521 23.4775 21.4824 23.8683 21.6127C23.9986 21.6127 24.1288 21.6127 24.1288 21.4824C24.1288 21.3521 24.1288 21.2219 23.9986 21.2219C23.6078 21.0916 23.0867 20.9613 22.6958 20.8311Z" fill="white"/>
<path d="M25.0408 21.3521C24.9105 21.3521 24.7803 21.4823 24.7803 21.6126C24.7803 21.7429 24.9105 21.8731 25.0408 21.8731C26.083 22.0034 27.2554 22.1337 28.1674 22.0034C28.2976 22.0034 28.4279 21.8731 28.4279 21.7429C28.4279 21.6126 28.2976 21.4823 28.1674 21.4823C27.1252 21.6126 26.083 21.4823 25.0408 21.3521Z" fill="white"/>
<defs>
<linearGradient id="paint0_linear" x1="11.5501" y1="0.63156" x2="16.3553" y2="17.1321" gradientUnits="userSpaceOnUse">
<stop stop-color="#03B8FF"/>
<stop offset="1" stop-color="#FA52A0"/>
</linearGradient>
<linearGradient id="paint1_linear" x1="15.5071" y1="-0.521178" x2="20.3124" y2="15.9795" gradientUnits="userSpaceOnUse">
<stop stop-color="#03B8FF"/>
<stop offset="1" stop-color="#FA52A0"/>
</linearGradient>
<linearGradient id="paint2_linear" x1="7.60512" y1="1.77977" x2="12.4105" y2="18.2804" gradientUnits="userSpaceOnUse">
<stop stop-color="#03B8FF"/>
<stop offset="1" stop-color="#FA52A0"/>
</linearGradient>
</defs>
</svg>
