<?xml version="1.0" encoding="UTF-8"?>
<svg width="32px" height="32px" viewBox="0 0 32 32" version="1.1" xmlns="http://www.w3.org/2000/svg" xmlns:xlink="http://www.w3.org/1999/xlink">
    <!-- Generator: Sketch 63 (92445) - https://sketch.com -->
    <title>logo / coin / flat / trx</title>
    <desc>Created with Sketch.</desc>
    <g id="logo-/-coin-/-flat-/-trx" stroke="none" stroke-width="1" fill="none" fill-rule="evenodd">
        <circle id="Oval-4" fill="#E0E0E0" opacity="0.800000012" cx="16" cy="16" r="16"></circle>
        <path d="M10.6866159,17.1229697 C8.56942457,11.6818916 6.91627515,7.12794583 7.00328301,7.00966152 C7.1192935,6.92094829 10.5706054,7.45322767 14.6599751,8.19250459 L22.1426514,9.58234519 L24.085827,11.5636073 L26,13.5744405 L20.6055124,20.287075 C17.6182424,23.9834595 15.0370091,26.9998554 14.8629934,26.9998554 C14.6889777,27.0292804 12.8328099,22.5640479 10.6866159,17.1229697 Z M15.2110249,19.1042319 C15.4720484,16.9455433 15.6460642,15.1417076 15.5880589,15.0825655 C15.5300537,15.0529944 14.3699488,14.0771489 13.0068256,12.9534479 C9.14947699,9.73020058 9.41050059,9.87805596 9.87454253,11.060899 C10.1065635,11.6227495 11.2666684,14.5798572 12.4557758,17.6256781 C13.6448833,20.6419279 14.6309724,23.0963272 14.6599751,23.0667562 C14.6889777,23.0371851 14.9500013,21.2629205 15.2110249,19.1042319 Z M19.7644364,18.8972344 C21.6206042,16.6202614 23.0707352,14.7277125 23.0417326,14.6685704 C22.9547248,14.5798572 17.2992136,15.5557027 17.1251979,15.673987 C16.9801848,15.7627002 16.2261166,21.6177734 16.197114,22.5640479 C16.197114,22.9484719 16.2551192,23.2146115 16.3131245,23.1554694 C16.3711297,23.0963272 17.9372713,21.1742073 19.7644364,18.8972344 Z M21.5045937,13.4265852 L23.5057746,13.0421612 L22.6356959,12.1550289 C21.6496068,11.1496123 21.5625989,11.1791833 19.3874023,13.1308744 C18.6333342,13.8110092 18.5173237,14.0180067 18.952363,13.8997224 C19.2713918,13.8405802 20.4314967,13.6040116 21.5045937,13.4265852 Z M18.2563001,12.1845999 C19.2423892,11.3270387 19.9384521,10.6173329 19.793439,10.5581907 C18.8363525,10.3216221 11.1506579,8.99092366 10.9766421,9.05006581 C10.7446212,9.13877904 15.8780851,13.6631538 16.2551192,13.6927249 C16.3421271,13.7222959 17.2412084,13.0421612 18.2563001,12.1845999 Z" id="Shape" fill="#D61719" fill-rule="nonzero"></path>
    </g>
</svg>