<?xml version="1.0" encoding="iso-8859-1"?>
<!-- Generator: Adobe Illustrator 19.0.0, SVG Export Plug-In . SVG Version: 6.00 Build 0)  -->
<svg version="1.1" id="Capa_1" xmlns="http://www.w3.org/2000/svg" xmlns:xlink="http://www.w3.org/1999/xlink" x="0px" y="0px"
	 viewBox="0 0 512 512" style="enable-background:new 0 0 512 512;" xml:space="preserve">
<circle style="fill:#004EB1;" cx="256" cy="256" r="256"/>
<path style="fill:#00296D;" d="M512,256c0-12.019-0.848-23.838-2.45-35.415l-94.373-94.373
	c-7.681-9.325-19.304-15.296-32.255-15.296h-253.31c-22.985,0-41.79,18.806-41.79,41.79v206.589
	c0,12.088,5.202,23.019,13.478,30.668l119.834,119.664C232.536,511.18,244.171,512,256,512C397.385,512,512,397.385,512,256z"/>
<path style="fill:#FFB942;" d="M382.922,401.085h-253.31c-22.985,0-41.79-18.806-41.79-41.79v-206.59
	c0-22.985,18.806-41.79,41.79-41.79h253.31c22.985,0,41.79,18.806,41.79,41.79v206.589
	C424.712,382.279,405.906,401.085,382.922,401.085z"/>
<path style="fill:#FF8A00;" d="M424.714,256v103.29c0,22.99-18.81,41.79-41.79,41.79h-253.31c-22.99,0-41.79-18.8-41.79-41.79V256
	H424.714z"/>
<path style="fill:#FF4F19;" d="M436.904,298.114h-89.816c-18.998,0-34.542-15.544-34.542-34.542v-15.144
	c0-18.998,15.544-34.542,34.542-34.542h89.816V298.114z"/>
<path style="fill:#BB1000;" d="M436.904,256v42.11h-89.82c-18.99,0-34.54-15.54-34.54-34.54V256H436.904z"/>
<circle style="fill:#FF8A00;" cx="352.78" cy="256" r="24.384"/>
<path style="fill:#DA6100;" d="M377.164,256c0,13.47-10.92,24.38-24.38,24.38c-13.47,0-24.39-10.91-24.39-24.38H377.164z"/>
<g>
</g>
<g>
</g>
<g>
</g>
<g>
</g>
<g>
</g>
<g>
</g>
<g>
</g>
<g>
</g>
<g>
</g>
<g>
</g>
<g>
</g>
<g>
</g>
<g>
</g>
<g>
</g>
<g>
</g>
</svg>
