<?xml version="1.0" encoding="UTF-8"?>
<svg width="32px" height="32px" viewBox="0 0 32 32" version="1.1" xmlns="http://www.w3.org/2000/svg" xmlns:xlink="http://www.w3.org/1999/xlink">
    <!-- Generator: Sketch 55 (78076) - https://sketchapp.com -->
    <title>logo / coin / flat / xrp </title>
    <desc>Created with Sketch.</desc>
    <g id="logo-/-coin-/-flat-/-xrp-" stroke="none" stroke-width="1" fill="none" fill-rule="evenodd">
        <rect id="mask-copy-2" x="0" y="0" width="21.3333333" height="21.3333333"></rect>
        <g id="Group">
            <circle id="Oval-4" fill="#141414" cx="16" cy="16" r="16"></circle>
            <path d="M9.60341981,24.3513574 L7,24.3513574 L12.4498736,18.5620768 C14.4105491,16.4793077 17.589434,16.4793077 19.5501604,18.5620768 L25,24.3513574 L22.3965377,24.3513574 L18.2483868,19.9448231 C17.0065566,18.6257202 14.9933415,18.6257202 13.7515877,19.9448231 L9.60341981,24.3513574 Z M22.3632959,7.7 L24.9667581,7.7 L19.5502864,13.4537242 C17.5896449,15.5365045 14.4107515,15.5365045 12.450076,13.4537242 L7.03366378,7.7 L9.6370751,7.7 L13.7517902,12.0709605 C14.993544,13.390046 17.0067676,13.390046 18.2485977,12.0709605 L22.3632959,7.7 Z" id="Path-2" fill="#FFFFFF" fill-rule="nonzero"></path>
        </g>
    </g>
</svg>