<?xml version="1.0" encoding="UTF-8"?>
<svg width="32px" height="32px" viewBox="0 0 32 32" version="1.1" xmlns="http://www.w3.org/2000/svg" xmlns:xlink="http://www.w3.org/1999/xlink">
    <!-- Generator: Sketch 63 (92445) - https://sketch.com -->
    <title>logo / coin / flat / xtz</title>
    <desc>Created with Sketch.</desc>
    <g id="logo-/-coin-/-flat-/-xtz" stroke="none" stroke-width="1" fill="none" fill-rule="evenodd">
        <circle id="Oval-4" fill="#E0E0E0" opacity="0.800000012" cx="16" cy="16" r="16"></circle>
        <path d="M18.6269087,28 C16.8779283,28 15.6013501,27.5874622 14.7971741,26.762454 C14.0522153,26.0640967 13.6199088,25.1053486 13.5947565,24.095791 C13.5857021,23.7890888 13.658291,23.4853561 13.8053911,23.2144363 C13.9425967,22.9803472 14.1407984,22.7861134 14.3797513,22.6515746 C14.9428336,22.3765781 15.6051402,22.3765781 16.1682225,22.6515746 C16.4067495,22.7855888 16.6040299,22.9800134 16.7393516,23.2144363 C16.8907001,23.4840431 16.9660044,23.7882492 16.9575254,24.095791 C16.9731492,24.463076 16.8655589,24.8252724 16.6511897,25.1270514 C16.4724983,25.3733768 16.2171068,25.5563759 15.923277,25.6486325 C16.2106204,26.0068501 16.6171784,26.2550289 17.0721512,26.3499498 C17.5811886,26.4947162 18.1083799,26.5691577 18.6384482,26.5711171 C19.3402242,26.5771133 20.0275559,26.3758709 20.6107823,25.9936415 C21.2158109,25.5750927 21.6670144,24.9767953 21.8975153,24.2874292 C22.1897105,23.4669639 22.3323044,22.6025816 22.3187845,21.7337604 C22.3423527,20.8279672 22.1862771,19.9262963 21.8592041,19.0786983 C21.6131966,18.4007799 21.14622,17.8209586 20.5303134,17.4286817 C19.9578342,17.0739513 19.2932877,16.8878297 18.6158308,16.8924866 C18.0255059,16.9414585 17.456288,17.1306804 16.9575254,17.4437476 L15.7278745,18.0474379 L15.7278745,17.4437476 L21.2540718,10.1845488 L13.5947565,10.1845488 L13.5947565,17.7174949 C13.5731147,18.2610988 13.7199736,18.7983916 14.0160258,19.2587357 C14.307362,19.6667423 14.795474,19.8957474 15.3027588,19.862426 C15.7635905,19.8532963 16.2092494,19.6995074 16.5741057,19.4237072 C16.9876878,19.1269234 17.3475727,18.7643926 17.6388184,18.3511663 C17.6650312,18.2787106 17.7133765,18.215907 17.7772926,18.1712796 C17.8285948,18.1278543 17.8941115,18.1039037 17.9619248,18.1037844 C18.0949853,18.1156837 18.220894,18.1681079 18.3219577,18.25369 C18.4499527,18.3937508 18.5196266,18.5757357 18.5172064,18.7636704 C18.5024199,18.8899786 18.4793964,19.015231 18.448277,19.1386605 C18.1761907,19.7835257 17.720113,20.337969 17.1346185,20.7356451 C16.5908314,21.0959557 15.9485652,21.2870002 15.2919885,21.2837422 C13.6336831,21.2837422 12.4848602,20.9637427 11.8455197,20.3237436 C11.1816727,19.609165 10.839374,18.6630905 10.8957406,17.6986625 L10.8957406,10.1845488 L7,10.1845488 L7,8.78492738 L10.9138961,8.78492738 L10.9138961,5.59367008 L10.0178142,4.71562988 L10.0178142,4 L12.6180519,4 L13.5947565,4.49506522 L13.5947565,8.78492738 L23.7126042,8.75479559 L24.719927,9.74477537 L18.5158216,15.8493243 C18.8906294,15.7017228 19.2853542,15.6082413 19.687621,15.5718105 C20.4838003,15.6059543 21.2606009,15.8230804 21.9552128,16.2056326 C22.7595647,16.5800009 23.4374335,17.1723436 23.9084683,17.9124475 C24.3305185,18.5389645 24.6292643,19.2372041 24.789318,19.9712017 C24.9209025,20.5501727 24.9914835,21.1408343 25,21.7339111 C25.0040524,22.8657562 24.7419785,23.983331 24.2340365,25.0000459 C23.7523253,25.984584 22.9415924,26.7784484 21.9361342,27.2501369 C20.906916,27.7467433 19.7742917,28.0033819 18.6269087,28 L18.6269087,28 Z" id="Path" fill="#2C7DF7" fill-rule="nonzero"></path>
    </g>
</svg>